<svg xmlns="http://www.w3.org/2000/svg" xmlns:xlink="http://www.w3.org/1999/xlink" width="1500" zoomAndPan="magnify" viewBox="0 0 1125 299.999988" height="400" preserveAspectRatio="xMidYMid meet" version="1.0"><defs><g/><clipPath id="id1"><path d="M 669.136719 92.933594 L 793.636719 92.933594 L 793.636719 178 L 669.136719 178 Z M 669.136719 92.933594 " clip-rule="nonzero"/></clipPath><clipPath id="id2"><path d="M 679 136 L 784 136 L 784 217.433594 L 679 217.433594 Z M 679 136 " clip-rule="nonzero"/></clipPath></defs><g fill="#0071bc" fill-opacity="1"><g transform="translate(0.122545, 215.345232)"><g><path d="M 90.40625 -150.390625 C 111.539062 -143.535156 122.109375 -128.679688 122.109375 -105.828125 C 122.109375 -91.117188 117.253906 -79.550781 107.546875 -71.125 C 97.117188 -61.988281 82.976562 -57.421875 65.125 -57.421875 L 43.28125 -57.421875 L 43.28125 -15.640625 C 44.414062 -15.210938 48.554688 -14.351562 55.703125 -13.0625 C 57.703125 -12.632812 58.703125 -11.28125 58.703125 -9 L 58.703125 0 L 7.28125 0 L 7.28125 -9 C 7.28125 -11.28125 8.351562 -12.632812 10.5 -13.0625 L 22.703125 -15.421875 L 22.703125 -137.75 C 15.847656 -139.039062 11.78125 -139.898438 10.5 -140.328125 C 8.351562 -140.753906 7.28125 -142.109375 7.28125 -144.390625 L 7.28125 -153.390625 L 65.125 -153.390625 C 74.695312 -153.390625 83.125 -152.316406 90.40625 -150.171875 Z M 101.328125 -106.265625 C 101.328125 -115.828125 98.328125 -123.394531 92.328125 -128.96875 C 86.472656 -134.394531 77.40625 -137.109375 65.125 -137.109375 L 43.28125 -137.109375 L 43.28125 -74.125 L 65.125 -74.125 C 76.695312 -74.125 85.625 -76.976562 91.90625 -82.6875 C 98.332031 -88.550781 101.546875 -96.335938 101.546875 -106.046875 Z M 101.328125 -106.265625 "/></g></g></g><g fill="#0071bc" fill-opacity="1"><g transform="translate(126.720449, 215.345232)"><g><path d="M 101.125 -13.71875 C 102.125 -13.570312 102.90625 -13.101562 103.46875 -12.3125 C 104.039062 -11.53125 104.328125 -10.640625 104.328125 -9.640625 L 104.328125 -0.421875 L 82.046875 -0.421875 C 80.765625 -0.421875 79.265625 -0.707031 77.546875 -1.28125 C 76.546875 -1.570312 75.832031 -2.71875 75.40625 -4.71875 L 73.265625 -15 L 64.703125 -7.921875 C 62.273438 -5.921875 59.414062 -4.207031 56.125 -2.78125 C 52.988281 -1.351562 49.847656 -0.285156 46.703125 0.421875 C 43.847656 1.140625 39.992188 1.5 35.140625 1.5 C 31.140625 1.5 27.28125 0.859375 23.5625 -0.421875 C 19.132812 -1.992188 15.921875 -3.707031 13.921875 -5.5625 C 11.347656 -7.851562 9.207031 -10.851562 7.5 -14.5625 C 5.925781 -17.851562 5.140625 -22.140625 5.140625 -27.421875 C 5.140625 -31.992188 6.28125 -36.132812 8.5625 -39.84375 C 11.132812 -43.988281 14.992188 -47.5625 20.140625 -50.5625 C 25.847656 -53.84375 32.703125 -56.410156 40.703125 -58.265625 C 48.984375 -60.128906 59.410156 -61.0625 71.984375 -61.0625 L 71.984375 -69.40625 C 71.984375 -77.832031 70.125 -84.257812 66.40625 -88.6875 C 62.695312 -93.113281 57.34375 -95.328125 50.34375 -95.328125 C 45.769531 -95.328125 41.84375 -94.6875 38.5625 -93.40625 C 34.84375 -91.976562 32.128906 -90.691406 30.421875 -89.546875 C 29.566406 -88.972656 28.601562 -88.363281 27.53125 -87.71875 C 26.457031 -87.082031 25.347656 -86.40625 24.203125 -85.6875 C 22.640625 -84.550781 21 -83.984375 19.28125 -83.984375 C 17.707031 -83.984375 16.566406 -84.269531 15.859375 -84.84375 C 14.992188 -85.550781 14.28125 -86.40625 13.71875 -87.40625 L 10.28125 -93.40625 C 15.851562 -98.832031 22.28125 -103.117188 29.5625 -106.265625 C 36.132812 -109.117188 43.847656 -110.546875 52.703125 -110.546875 C 59.128906 -110.546875 64.554688 -109.546875 68.984375 -107.546875 C 73.835938 -105.398438 77.765625 -102.6875 80.765625 -99.40625 C 83.910156 -96.125 86.335938 -91.835938 88.046875 -86.546875 C 89.617188 -81.835938 90.40625 -76.269531 90.40625 -69.84375 L 90.40625 -15.640625 C 97.257812 -14.210938 100.832031 -13.425781 101.125 -13.28125 Z M 71.546875 -48.84375 C 62.265625 -48.84375 54.84375 -48.34375 49.28125 -47.34375 C 43.851562 -46.34375 38.851562 -44.84375 34.28125 -42.84375 C 30.28125 -40.988281 27.421875 -38.847656 25.703125 -36.421875 C 23.992188 -33.847656 23.140625 -31.132812 23.140625 -28.28125 C 23.140625 -25.988281 23.640625 -23.5625 24.640625 -21 C 25.492188 -18.851562 26.78125 -17.140625 28.5 -15.859375 C 30.207031 -14.566406 32.0625 -13.632812 34.0625 -13.0625 C 36.488281 -12.351562 38.847656 -12 41.140625 -12 C 43.992188 -12 46.988281 -12.351562 50.125 -13.0625 C 52.988281 -13.78125 55.632812 -14.710938 58.0625 -15.859375 C 60.195312 -16.859375 62.550781 -18.425781 65.125 -20.5625 C 66.550781 -21.707031 68.691406 -23.707031 71.546875 -26.5625 Z M 71.546875 -48.84375 "/></g></g></g><g fill="#0071bc" fill-opacity="1"><g transform="translate(236.610009, 215.345232)"><g><path d="M 40.921875 -86.34375 C 48.921875 -102.476562 59.914062 -110.546875 73.90625 -110.546875 C 79.476562 -110.546875 84.40625 -109.257812 88.6875 -106.6875 L 86.34375 -92.328125 C 85.90625 -90.472656 84.972656 -89.546875 83.546875 -89.546875 C 82.546875 -89.546875 80.832031 -89.90625 78.40625 -90.625 C 75.976562 -91.332031 73.050781 -91.6875 69.625 -91.6875 C 57.0625 -91.6875 47.78125 -84.117188 41.78125 -68.984375 L 41.78125 -15.421875 L 53.984375 -13.0625 C 56.128906 -12.632812 57.203125 -11.28125 57.203125 -9 L 57.203125 0 L 7.28125 0 L 7.28125 -9 C 7.28125 -11.28125 8.351562 -12.632812 10.5 -13.0625 L 22.703125 -15.421875 L 22.703125 -92.765625 C 15.847656 -94.046875 11.78125 -94.898438 10.5 -95.328125 C 8.351562 -95.765625 7.28125 -97.125 7.28125 -99.40625 L 7.28125 -108.40625 L 33.640625 -108.40625 C 35.640625 -108.40625 36.992188 -108.046875 37.703125 -107.328125 C 38.421875 -106.617188 38.992188 -105.265625 39.421875 -103.265625 L 40.703125 -86.34375 Z M 40.921875 -86.34375 "/></g></g></g><g fill="#0071bc" fill-opacity="1"><g transform="translate(329.148582, 215.345232)"><g><path d="M 46.484375 1.71875 C 38.203125 1.71875 31.632812 -0.707031 26.78125 -5.5625 C 22.207031 -10.132812 19.921875 -16.992188 19.921875 -26.140625 L 19.921875 -92.546875 L 6.859375 -92.546875 C 5.566406 -92.546875 4.566406 -92.832031 3.859375 -93.40625 C 3.140625 -93.976562 2.78125 -95.050781 2.78125 -96.625 L 2.78125 -104.125 L 20.5625 -106.46875 L 24.84375 -140.109375 C 24.84375 -141.253906 25.273438 -142.113281 26.140625 -142.6875 C 26.847656 -143.25 27.847656 -143.53125 29.140625 -143.53125 L 38.78125 -143.53125 L 38.78125 -106.265625 L 69.84375 -106.265625 L 69.84375 -92.328125 L 38.78125 -92.328125 L 38.78125 -27.203125 C 38.78125 -22.492188 39.847656 -19.066406 41.984375 -16.921875 C 44.128906 -14.785156 47.0625 -13.71875 50.78125 -13.71875 C 52.34375 -13.71875 54.125 -14 56.125 -14.5625 C 57.414062 -14.988281 58.703125 -15.5625 59.984375 -16.28125 C 60.410156 -16.5625 60.835938 -16.84375 61.265625 -17.125 C 61.691406 -17.414062 62.125 -17.707031 62.5625 -18 C 63.695312 -18.570312 64.410156 -18.859375 64.703125 -18.859375 C 65.703125 -18.859375 66.554688 -18.285156 67.265625 -17.140625 L 72.84375 -8.140625 C 68.988281 -4.859375 64.988281 -2.429688 60.84375 -0.859375 C 56.125 0.859375 51.335938 1.71875 46.484375 1.71875 Z M 46.484375 1.71875 "/></g></g></g><g fill="#0071bc" fill-opacity="1"><g transform="translate(406.906702, 215.345232)"><g><path d="M 49.484375 -110.109375 C 56.910156 -110.109375 66.335938 -108.179688 77.765625 -104.328125 L 77.765625 -76.484375 L 69.40625 -76.484375 C 67.40625 -76.484375 66.191406 -77.484375 65.765625 -79.484375 L 64.484375 -93.625 C 57.773438 -95.195312 52.207031 -95.984375 47.78125 -95.984375 L 47.5625 -95.984375 C 41.707031 -95.984375 36.78125 -94.410156 32.78125 -91.265625 C 28.925781 -88.265625 27 -84.976562 27 -81.40625 C 27 -77.695312 27.851562 -74.984375 29.5625 -73.265625 C 32.414062 -69.984375 36.554688 -67.484375 41.984375 -65.765625 L 48.421875 -63.84375 C 49.554688 -63.550781 51.835938 -62.835938 55.265625 -61.703125 L 65.5625 -57.84375 C 68.414062 -56.84375 71.410156 -54.984375 74.546875 -52.265625 C 80.410156 -47.703125 83.34375 -41.421875 83.34375 -33.421875 C 83.34375 -22.992188 79.84375 -14.707031 72.84375 -8.5625 C 65.269531 -1.851562 55.695312 1.5 44.125 1.5 C 32.269531 1.5 20.5625 -0.425781 9 -4.28125 L 9 -32.5625 L 16.703125 -32.5625 C 18.421875 -32.5625 19.492188 -31.707031 19.921875 -30 L 21.203125 -16.28125 C 26.921875 -13.425781 34.28125 -12 43.28125 -12 C 50.132812 -12 55.703125 -13.785156 59.984375 -17.359375 C 63.703125 -20.640625 65.5625 -24.28125 65.5625 -28.28125 C 65.5625 -32.414062 64.703125 -35.414062 62.984375 -37.28125 C 60.984375 -39.5625 58.84375 -41.273438 56.5625 -42.421875 C 53.414062 -43.992188 50.414062 -45.132812 47.5625 -45.84375 C 36.988281 -49.269531 30.347656 -51.554688 27.640625 -52.703125 C 24.210938 -54.273438 21 -56.273438 18 -58.703125 C 12 -63.703125 9 -70.414062 9 -78.84375 C 9 -87.40625 12.425781 -94.6875 19.28125 -100.6875 C 26.425781 -106.96875 36.492188 -110.109375 49.484375 -110.109375 Z M 49.484375 -110.109375 "/></g></g></g><g fill="#0071bc" fill-opacity="1"><g transform="translate(494.732673, 215.345232)"><g><path d="M 146.96875 -15.640625 L 159.8125 -13.0625 C 161.53125 -12.632812 162.390625 -11.351562 162.390625 -9.21875 L 162.390625 0 L 110.546875 0 L 110.546875 -9.21875 C 110.546875 -11.5 111.6875 -12.851562 113.96875 -13.28125 L 125.96875 -15.640625 L 125.96875 -69.84375 L 43.28125 -69.84375 L 43.28125 -15.640625 C 53.5625 -13.492188 58.703125 -11.351562 58.703125 -9.21875 L 58.703125 0 L 7.0625 0 L 7.0625 -9.21875 C 7.0625 -11.5 8.132812 -12.851562 10.28125 -13.28125 L 22.5 -15.640625 L 22.5 -137.96875 L 9.640625 -140.53125 C 7.921875 -140.96875 7.0625 -142.253906 7.0625 -144.390625 L 7.0625 -153.390625 L 58.703125 -153.390625 L 58.703125 -144.390625 C 58.703125 -142.253906 57.988281 -140.96875 56.5625 -140.53125 C 54.988281 -140.101562 50.628906 -139.25 43.484375 -137.96875 L 43.484375 -85.046875 L 126.1875 -85.046875 L 126.1875 -137.96875 L 113.328125 -140.53125 C 111.617188 -140.96875 110.765625 -142.253906 110.765625 -144.390625 L 110.765625 -153.390625 L 162.609375 -153.390625 L 162.609375 -144.390625 C 162.609375 -142.109375 161.535156 -140.753906 159.390625 -140.328125 L 146.96875 -137.96875 Z M 146.96875 -15.640625 "/></g></g></g><g fill="#0071bc" fill-opacity="1"><g transform="translate(663.70345, 215.345232)"><g/></g></g><g fill="#0071bc" fill-opacity="1"><g transform="translate(709.758523, 215.345232)"><g/></g></g><g fill="#0071bc" fill-opacity="1"><g transform="translate(755.813596, 215.345232)"><g/></g></g><g fill="#0071bc" fill-opacity="1"><g transform="translate(801.867775, 215.345232)"><g><path d="M 60.421875 -13.28125 C 71.128906 -13.28125 80.910156 -18.28125 89.765625 -28.28125 L 89.765625 -92.546875 C 88.484375 -92.972656 84.410156 -93.832031 77.546875 -95.125 C 75.410156 -95.550781 74.34375 -96.90625 74.34375 -99.1875 L 74.34375 -108.40625 L 108.828125 -108.40625 L 108.828125 -15.421875 C 115.679688 -14.140625 119.753906 -13.285156 121.046875 -12.859375 C 123.179688 -12.429688 124.25 -11.144531 124.25 -9 L 124.25 0.21875 L 97.484375 0.21875 C 94.910156 0.21875 93.191406 -1.140625 92.328125 -3.859375 L 90.828125 -15.421875 C 80.546875 -3.859375 68.550781 1.921875 54.84375 1.921875 C 43.269531 1.921875 34.269531 -1.859375 27.84375 -9.421875 C 21.5625 -16.992188 18.421875 -26.921875 18.421875 -39.203125 L 18.421875 -92.765625 C 11.847656 -94.046875 7.847656 -94.898438 6.421875 -95.328125 C 4.140625 -95.765625 3 -97.125 3 -99.40625 L 3 -108.40625 L 37.703125 -108.40625 L 37.703125 -39.421875 C 37.703125 -30.847656 39.5625 -24.421875 43.28125 -20.140625 C 47.132812 -15.710938 52.847656 -13.5 60.421875 -13.5 Z M 60.421875 -13.28125 "/></g></g></g><g fill="#0071bc" fill-opacity="1"><g transform="translate(931.678819, 215.345232)"><g><path d="M 49.484375 -110.109375 C 56.910156 -110.109375 66.335938 -108.179688 77.765625 -104.328125 L 77.765625 -76.484375 L 69.40625 -76.484375 C 67.40625 -76.484375 66.191406 -77.484375 65.765625 -79.484375 L 64.484375 -93.625 C 57.773438 -95.195312 52.207031 -95.984375 47.78125 -95.984375 L 47.5625 -95.984375 C 41.707031 -95.984375 36.78125 -94.410156 32.78125 -91.265625 C 28.925781 -88.265625 27 -84.976562 27 -81.40625 C 27 -77.695312 27.851562 -74.984375 29.5625 -73.265625 C 32.414062 -69.984375 36.554688 -67.484375 41.984375 -65.765625 L 48.421875 -63.84375 C 49.554688 -63.550781 51.835938 -62.835938 55.265625 -61.703125 L 65.5625 -57.84375 C 68.414062 -56.84375 71.410156 -54.984375 74.546875 -52.265625 C 80.410156 -47.703125 83.34375 -41.421875 83.34375 -33.421875 C 83.34375 -22.992188 79.84375 -14.707031 72.84375 -8.5625 C 65.269531 -1.851562 55.695312 1.5 44.125 1.5 C 32.269531 1.5 20.5625 -0.425781 9 -4.28125 L 9 -32.5625 L 16.703125 -32.5625 C 18.421875 -32.5625 19.492188 -31.707031 19.921875 -30 L 21.203125 -16.28125 C 26.921875 -13.425781 34.28125 -12 43.28125 -12 C 50.132812 -12 55.703125 -13.785156 59.984375 -17.359375 C 63.703125 -20.640625 65.5625 -24.28125 65.5625 -28.28125 C 65.5625 -32.414062 64.703125 -35.414062 62.984375 -37.28125 C 60.984375 -39.5625 58.84375 -41.273438 56.5625 -42.421875 C 53.414062 -43.992188 50.414062 -45.132812 47.5625 -45.84375 C 36.988281 -49.269531 30.347656 -51.554688 27.640625 -52.703125 C 24.210938 -54.273438 21 -56.273438 18 -58.703125 C 12 -63.703125 9 -70.414062 9 -78.84375 C 9 -87.40625 12.425781 -94.6875 19.28125 -100.6875 C 26.425781 -106.96875 36.492188 -110.109375 49.484375 -110.109375 Z M 49.484375 -110.109375 "/></g></g></g><g fill="#0071bc" fill-opacity="1"><g transform="translate(1019.50479, 215.345232)"><g><path d="M 55.0625 -110.109375 C 61.34375 -110.109375 67.269531 -109.039062 72.84375 -106.90625 C 78.550781 -104.757812 83.265625 -101.6875 86.984375 -97.6875 C 91.265625 -93.113281 94.40625 -88.046875 96.40625 -82.484375 C 98.6875 -76.054688 99.828125 -69.195312 99.828125 -61.90625 C 99.828125 -58.625 99.539062 -56.628906 98.96875 -55.921875 C 98.257812 -54.921875 96.976562 -54.421875 95.125 -54.421875 L 23.140625 -54.421875 C 23.140625 -47.554688 23.992188 -41.554688 25.703125 -36.421875 C 27.128906 -31.992188 29.554688 -27.851562 32.984375 -24 C 36.128906 -20.425781 39.703125 -17.851562 43.703125 -16.28125 C 47.984375 -14.570312 52.554688 -13.71875 57.421875 -13.71875 C 62.554688 -13.71875 66.695312 -14.210938 69.84375 -15.203125 C 72.84375 -16.203125 75.84375 -17.421875 78.84375 -18.859375 C 81.976562 -20.421875 84.117188 -21.5625 85.265625 -22.28125 C 87.117188 -23.425781 88.546875 -24 89.546875 -24 C 91.117188 -24 92.332031 -23.351562 93.1875 -22.0625 L 98.546875 -15 C 96.546875 -12.425781 93.691406 -10 89.984375 -7.71875 C 85.691406 -5 82.191406 -3.210938 79.484375 -2.359375 C 75.191406 -0.929688 71.332031 0.0664062 67.90625 0.640625 C 63.625 1.359375 59.695312 1.71875 56.125 1.71875 C 48.695312 1.71875 41.769531 0.429688 35.34375 -2.140625 C 29.207031 -4.566406 23.710938 -8.351562 18.859375 -13.5 C 14.285156 -18.207031 10.710938 -24.273438 8.140625 -31.703125 C 5.566406 -38.984375 4.28125 -47.269531 4.28125 -56.5625 C 4.28125 -63.988281 5.492188 -70.984375 7.921875 -77.546875 C 10.347656 -84.265625 13.707031 -89.976562 18 -94.6875 C 22.425781 -99.539062 27.78125 -103.328125 34.0625 -106.046875 C 40.34375 -108.753906 47.34375 -110.109375 55.0625 -110.109375 Z M 55.484375 -96.1875 C 46.203125 -96.1875 38.988281 -93.546875 33.84375 -88.265625 C 28.5625 -82.691406 25.28125 -75.265625 24 -65.984375 L 82.90625 -65.984375 C 82.90625 -70.410156 82.265625 -74.410156 80.984375 -77.984375 C 79.410156 -82.410156 77.695312 -85.625 75.84375 -87.625 C 73.414062 -90.195312 70.488281 -92.265625 67.0625 -93.828125 C 63.769531 -95.265625 59.835938 -95.984375 55.265625 -95.984375 Z M 55.484375 -96.1875 "/></g></g></g><g clip-path="url(#id1)"><path fill="#29abe2" d="M 731.386719 119.523438 L 789.46875 177.609375 C 792.253906 170.390625 793.644531 162.917969 793.636719 155.183594 C 793.636719 120.804688 765.765625 92.933594 731.386719 92.933594 C 697.007812 92.933594 669.136719 120.804688 669.136719 155.183594 C 669.128906 162.917969 670.515625 170.390625 673.300781 177.609375 Z M 731.386719 119.523438 " fill-opacity="1" fill-rule="nonzero"/></g><g clip-path="url(#id2)"><path fill="#0071bc" d="M 731.386719 136.683594 L 679.105469 188.964844 C 679.808594 190.050781 680.542969 191.113281 681.3125 192.152344 C 682.082031 193.191406 682.878906 194.207031 683.710938 195.199219 C 684.542969 196.1875 685.40625 197.152344 686.296875 198.089844 C 687.191406 199.027344 688.109375 199.933594 689.058594 200.8125 C 690.007812 201.691406 690.980469 202.542969 691.984375 203.359375 C 692.984375 204.179688 694.011719 204.964844 695.058594 205.71875 C 696.109375 206.472656 697.183594 207.195312 698.277344 207.882812 C 699.375 208.570312 700.488281 209.222656 701.625 209.84375 C 702.761719 210.460938 703.914062 211.042969 705.089844 211.589844 C 706.261719 212.136719 707.449219 212.644531 708.652344 213.117188 C 709.855469 213.589844 711.074219 214.023438 712.304688 214.421875 C 713.535156 214.816406 714.777344 215.175781 716.03125 215.492188 C 717.285156 215.8125 718.546875 216.089844 719.816406 216.332031 C 721.089844 216.574219 722.367188 216.773438 723.648438 216.933594 C 724.933594 217.09375 726.21875 217.214844 727.511719 217.296875 C 728.800781 217.375 730.09375 217.417969 731.386719 217.417969 C 732.679688 217.417969 733.972656 217.375 735.261719 217.296875 C 736.554688 217.214844 737.839844 217.09375 739.125 216.933594 C 740.40625 216.773438 741.683594 216.574219 742.953125 216.332031 C 744.226562 216.089844 745.488281 215.8125 746.742188 215.492188 C 747.996094 215.175781 749.238281 214.816406 750.46875 214.421875 C 751.699219 214.023438 752.917969 213.589844 754.121094 213.117188 C 755.324219 212.644531 756.511719 212.136719 757.683594 211.589844 C 758.855469 211.042969 760.011719 210.460938 761.148438 209.84375 C 762.285156 209.222656 763.398438 208.570312 764.496094 207.882812 C 765.589844 207.195312 766.664062 206.472656 767.710938 205.71875 C 768.761719 204.964844 769.789062 204.179688 770.789062 203.359375 C 771.792969 202.542969 772.765625 201.691406 773.714844 200.8125 C 774.664062 199.933594 775.582031 199.027344 776.476562 198.089844 C 777.367188 197.152344 778.230469 196.1875 779.0625 195.199219 C 779.890625 194.207031 780.691406 193.191406 781.460938 192.152344 C 782.230469 191.113281 782.964844 190.050781 783.667969 188.964844 Z M 729.226562 180.910156 L 721.671875 180.910156 L 721.671875 173.363281 L 729.226562 173.363281 Z M 729.226562 169.039062 L 721.671875 169.039062 L 721.671875 161.492188 L 729.226562 161.492188 Z M 741.101562 180.910156 L 733.542969 180.910156 L 733.542969 173.363281 L 741.101562 173.363281 Z M 741.101562 169.039062 L 733.542969 169.039062 L 733.542969 161.492188 L 741.101562 161.492188 Z M 731.386719 145.210938 L 690.15625 181.636719 L 731.386719 140.640625 L 772.617188 181.636719 Z M 731.386719 145.210938 " fill-opacity="1" fill-rule="nonzero"/></g></svg>